<svg xmlns="http://www.w3.org/2000/svg" xmlns:xlink="http://www.w3.org/1999/xlink" width="500" zoomAndPan="magnify" viewBox="0 0 375 374.999991" height="500" preserveAspectRatio="xMidYMid meet" version="1.0"><defs><clipPath id="12770fcc94"><path d="M 6.773438 7 L 368.226562 7 L 368.226562 368.226562 L 6.773438 368.226562 Z M 6.773438 7 " clip-rule="nonzero"/></clipPath><clipPath id="f3fefb10f3"><path d="M 210 103 L 291.511719 103 L 291.511719 287.839844 L 210 287.839844 Z M 210 103 " clip-rule="nonzero"/></clipPath><clipPath id="6a99b87228"><path d="M 84.359375 103 L 166 103 L 166 287.839844 L 84.359375 287.839844 Z M 84.359375 103 " clip-rule="nonzero"/></clipPath><clipPath id="ff66beeb5f"><path d="M 101 87.714844 L 183 87.714844 L 183 273 L 101 273 Z M 101 87.714844 " clip-rule="nonzero"/></clipPath><clipPath id="5ccdb43909"><path d="M 192 87.714844 L 275 87.714844 L 275 273 L 192 273 Z M 192 87.714844 " clip-rule="nonzero"/></clipPath></defs><g clip-path="url(#12770fcc94)"><path fill="#004aad" d="M 362.515625 188.007812 C 362.515625 169.136719 371.910156 149.113281 366.128906 132.125 C 360.199219 114.488281 340.105469 103.644531 329.042969 88.96875 C 317.839844 74.148438 313.210938 52.535156 297.8125 41.761719 C 282.5625 31.136719 259.789062 33.523438 241.5 27.738281 C 223.789062 22.246094 206.945312 7.210938 187.355469 7.210938 C 167.765625 7.210938 150.847656 22.171875 133.210938 27.738281 C 114.921875 33.449219 92.078125 31.066406 76.824219 41.761719 C 61.425781 52.535156 56.800781 74.148438 45.59375 88.96875 C 34.460938 103.644531 14.4375 114.488281 8.4375 132.125 C 2.726562 149.113281 12.050781 169.136719 12.050781 188.007812 C 12.050781 206.875 2.65625 226.898438 8.4375 243.886719 C 14.367188 261.523438 34.460938 272.367188 45.523438 287.042969 C 56.726562 301.863281 61.355469 323.476562 76.75 334.25 C 92.003906 344.949219 114.777344 342.5625 133.136719 348.273438 C 150.847656 353.765625 167.691406 368.804688 187.28125 368.804688 C 206.875 368.804688 223.789062 353.839844 241.429688 348.273438 C 259.71875 342.5625 282.5625 344.949219 297.8125 334.25 C 313.210938 323.476562 317.839844 301.863281 329.042969 287.042969 C 340.175781 272.367188 360.199219 261.523438 366.128906 243.886719 C 371.910156 226.824219 362.515625 206.800781 362.515625 188.007812 Z M 362.515625 188.007812 " fill-opacity="1" fill-rule="nonzero"/></g><g clip-path="url(#f3fefb10f3)"><path fill="#ffffff" d="M 280.8125 108.105469 L 280.8125 241.945312 L 210.046875 272.65625 L 210.046875 287.835938 L 291.472656 252.492188 L 291.472656 103.480469 L 280.8125 108.105469 " fill-opacity="1" fill-rule="nonzero"/></g><g clip-path="url(#6a99b87228)"><path fill="#ffffff" d="M 95.0625 108.105469 L 95.0625 241.945312 L 165.824219 272.65625 L 165.824219 287.835938 L 84.398438 252.492188 L 84.398438 103.480469 L 95.0625 108.105469 " fill-opacity="1" fill-rule="nonzero"/></g><g clip-path="url(#ff66beeb5f)"><path fill="#ffffff" d="M 101.570312 176.449219 C 111.351562 176.507812 119.847656 176.230469 126.871094 175.046875 C 128.378906 174.792969 129.734375 173.90625 131.136719 173.394531 C 131.601562 173.222656 132.066406 173.058594 132.519531 172.894531 C 134.335938 172.253906 136.027344 171.714844 137.425781 171.351562 C 139.34375 170.851562 141.359375 170.367188 143.011719 169.277344 C 143.09375 169.222656 143.175781 169.175781 143.257812 169.117188 C 143.398438 169.015625 143.542969 168.917969 143.691406 168.820312 C 143.984375 168.625 144.292969 168.4375 144.605469 168.253906 C 144.820312 168.132812 145.035156 168.011719 145.253906 167.898438 C 148.789062 166.023438 153.160156 164.917969 154.890625 164.527344 C 155.371094 164.417969 155.648438 164.367188 155.648438 164.367188 C 155.839844 164.3125 156.015625 164.285156 156.179688 164.273438 C 156.925781 164.230469 157.363281 164.585938 157.617188 164.957031 C 157.746094 165.148438 157.835938 165.347656 157.878906 165.496094 C 158.261719 166.800781 156.289062 167.777344 156.289062 167.777344 C 153.550781 169.042969 150.769531 170.179688 149.28125 171.15625 C 143.613281 174.890625 144.859375 175.589844 144.859375 175.589844 C 145.039062 175.65625 145.273438 175.6875 145.558594 175.6875 C 146.703125 175.703125 148.632812 175.261719 150.714844 174.816406 C 151.238281 174.703125 151.769531 174.589844 152.296875 174.480469 C 153.359375 174.265625 154.417969 174.078125 155.398438 173.964844 C 155.835938 173.917969 156.273438 173.878906 156.710938 173.828125 C 158.992188 173.59375 161.277344 173.386719 163.550781 173.117188 C 165 172.941406 167.226562 172.78125 168.242188 173.988281 C 168.476562 174.265625 168.648438 174.617188 168.730469 175.058594 C 169.082031 176.933594 165.832031 177.585938 165.832031 177.585938 C 161.042969 177.699219 157.765625 178.589844 155.089844 178.914062 C 151.863281 179.304688 150.292969 179.753906 149.539062 180.132812 C 149.1875 180.3125 149.011719 180.472656 148.929688 180.605469 C 148.882812 180.683594 148.867188 180.753906 148.867188 180.808594 C 148.867188 180.90625 148.917969 180.960938 148.917969 180.960938 C 148.980469 181.0625 149.152344 181.140625 149.394531 181.214844 C 150.933594 181.648438 155.636719 181.570312 158.5 181.609375 C 162.230469 181.660156 165.957031 181.703125 169.683594 181.703125 C 170.195312 181.703125 170.714844 181.703125 171.203125 181.84375 C 171.3125 181.875 171.421875 181.921875 171.527344 181.976562 C 171.558594 181.992188 171.589844 182.007812 171.621094 182.027344 C 171.699219 182.070312 171.769531 182.121094 171.84375 182.167969 C 171.875 182.195312 171.910156 182.214844 171.945312 182.242188 C 172.027344 182.3125 172.109375 182.386719 172.183594 182.464844 C 172.238281 182.519531 172.289062 182.578125 172.335938 182.640625 C 172.359375 182.667969 172.382812 182.695312 172.40625 182.726562 C 172.585938 182.960938 172.722656 183.21875 172.808594 183.496094 C 172.902344 183.808594 172.929688 184.136719 172.839844 184.449219 C 172.359375 186.058594 170.597656 186.410156 169.136719 186.464844 C 165.757812 186.589844 162.398438 187.15625 159.011719 187.210938 C 150.175781 187.347656 149.878906 188.269531 149.761719 188.707031 C 149.625 189.210938 159.988281 190.496094 163.328125 190.730469 C 163.546875 190.742188 163.808594 190.785156 164.089844 190.8125 C 165.699219 190.96875 167.445312 191.070312 168.792969 192.039062 C 169.699219 192.695312 170.964844 194.023438 169.929688 195.121094 C 169.34375 195.746094 167.925781 196.222656 167.058594 196.164062 C 161.214844 195.785156 156.863281 195 153.859375 195.257812 C 149.816406 195.605469 142.296875 194.765625 141.449219 196.421875 C 140.671875 197.945312 141.257812 199.714844 142.035156 200.992188 C 142.417969 201.621094 142.839844 202.125 143.179688 202.421875 L 143.230469 202.464844 C 143.332031 202.550781 143.425781 202.621094 143.503906 202.667969 C 144.300781 203.089844 145.382812 204.023438 146.328125 205.140625 C 146.382812 205.203125 146.4375 205.269531 146.492188 205.335938 C 146.890625 205.828125 147.261719 206.347656 147.570312 206.871094 C 148.171875 207.902344 148.535156 208.945312 148.394531 209.8125 C 148.050781 211.914062 145.808594 210.199219 144.324219 209.050781 C 144.109375 208.886719 143.914062 208.734375 143.742188 208.605469 C 142.355469 207.578125 138.5625 206.726562 137.707031 205.808594 C 137.285156 205.355469 136.847656 204.917969 136.402344 204.5 L 136.359375 204.464844 C 130.308594 198.796875 122.851562 196.695312 122.710938 196.65625 C 120.054688 195.929688 112.003906 195.320312 101.570312 194.90625 L 101.570312 236.734375 L 182.996094 272.074219 L 182.996094 123.0625 L 101.570312 87.71875 L 101.570312 176.449219 " fill-opacity="1" fill-rule="nonzero"/></g><g clip-path="url(#5ccdb43909)"><path fill="#ffffff" d="M 235.34375 162.894531 C 235.585938 163.082031 235.8125 163.257812 236.011719 163.40625 C 237.597656 164.582031 241.941406 165.558594 242.921875 166.609375 C 243.40625 167.128906 243.90625 167.628906 244.414062 168.105469 L 244.464844 168.15625 C 251.394531 174.644531 259.9375 177.046875 260.101562 177.09375 C 262.222656 177.675781 267.347656 178.1875 274.304688 178.609375 L 274.304688 87.71875 L 192.878906 123.0625 L 192.878906 272.074219 L 274.304688 236.734375 L 274.304688 200.308594 C 267.222656 200.472656 260.878906 200.914062 255.335938 201.847656 C 253.605469 202.136719 252.054688 203.152344 250.449219 203.742188 C 249.914062 203.9375 249.382812 204.128906 248.863281 204.3125 C 246.785156 205.042969 244.84375 205.660156 243.246094 206.078125 C 241.046875 206.652344 238.738281 207.207031 236.847656 208.457031 C 236.753906 208.515625 236.65625 208.574219 236.566406 208.636719 C 236.402344 208.753906 236.238281 208.867188 236.070312 208.976562 C 235.730469 209.203125 235.378906 209.417969 235.019531 209.628906 C 234.777344 209.765625 234.527344 209.902344 234.273438 210.039062 C 230.226562 212.183594 225.222656 213.449219 223.238281 213.898438 C 222.6875 214.023438 222.371094 214.082031 222.371094 214.082031 C 222.152344 214.144531 221.949219 214.175781 221.761719 214.1875 C 220.910156 214.238281 220.410156 213.832031 220.117188 213.40625 C 219.964844 213.183594 219.867188 212.957031 219.816406 212.789062 C 219.378906 211.289062 221.636719 210.171875 221.636719 210.171875 C 224.773438 208.722656 227.957031 207.425781 229.664062 206.300781 C 236.15625 202.027344 234.730469 201.226562 234.730469 201.226562 C 234.527344 201.152344 234.257812 201.113281 233.925781 201.109375 C 232.617188 201.097656 230.410156 201.597656 228.023438 202.113281 C 227.421875 202.242188 226.816406 202.371094 226.207031 202.496094 C 224.992188 202.742188 223.78125 202.960938 222.660156 203.085938 C 222.160156 203.140625 221.65625 203.1875 221.152344 203.242188 C 218.539062 203.511719 215.925781 203.75 213.320312 204.058594 C 211.660156 204.257812 209.109375 204.4375 207.945312 203.058594 C 207.675781 202.742188 207.480469 202.339844 207.386719 201.835938 C 206.984375 199.683594 210.707031 198.9375 210.707031 198.9375 C 216.191406 198.804688 219.945312 197.789062 223.015625 197.414062 C 226.703125 196.96875 228.503906 196.453125 229.371094 196.019531 C 229.769531 195.816406 229.972656 195.632812 230.066406 195.480469 C 230.121094 195.390625 230.140625 195.3125 230.140625 195.246094 C 230.136719 195.136719 230.082031 195.070312 230.082031 195.070312 C 230.007812 194.960938 229.8125 194.867188 229.535156 194.785156 C 227.773438 194.285156 222.382812 194.378906 219.101562 194.332031 C 214.828125 194.273438 210.5625 194.226562 206.292969 194.222656 C 205.707031 194.222656 205.113281 194.21875 204.550781 194.0625 C 204.425781 194.027344 204.304688 193.96875 204.183594 193.910156 C 204.144531 193.894531 204.109375 193.871094 204.074219 193.851562 C 203.988281 193.800781 203.902344 193.746094 203.820312 193.6875 C 203.78125 193.65625 203.742188 193.632812 203.703125 193.601562 C 203.609375 193.523438 203.519531 193.441406 203.429688 193.351562 C 203.367188 193.289062 203.3125 193.21875 203.253906 193.148438 C 203.226562 193.117188 203.203125 193.085938 203.179688 193.050781 C 202.96875 192.78125 202.8125 192.484375 202.714844 192.171875 C 202.605469 191.808594 202.574219 191.433594 202.679688 191.078125 C 203.226562 189.234375 205.246094 188.828125 206.925781 188.769531 C 210.789062 188.621094 214.636719 187.972656 218.519531 187.914062 C 228.640625 187.757812 228.980469 186.699219 229.113281 186.203125 C 229.269531 185.625 217.402344 184.148438 213.578125 183.882812 C 213.320312 183.863281 213.023438 183.820312 212.699219 183.789062 C 210.859375 183.609375 208.855469 183.496094 207.3125 182.378906 C 206.277344 181.628906 204.824219 180.109375 206.011719 178.851562 C 206.683594 178.136719 208.308594 177.589844 209.300781 177.65625 C 215.992188 178.089844 220.980469 178.988281 224.417969 178.695312 C 229.050781 178.296875 237.667969 179.261719 238.636719 177.359375 C 239.523438 175.621094 238.855469 173.589844 237.964844 172.125 C 237.527344 171.410156 237.039062 170.832031 236.652344 170.492188 L 236.597656 170.441406 C 236.480469 170.34375 236.371094 170.261719 236.28125 170.210938 C 235.371094 169.726562 234.132812 168.65625 233.046875 167.375 C 232.980469 167.300781 232.921875 167.226562 232.859375 167.152344 C 232.402344 166.589844 231.976562 165.996094 231.621094 165.390625 C 230.933594 164.214844 230.519531 163.015625 230.683594 162.023438 C 231.074219 159.617188 233.644531 161.582031 235.34375 162.894531 " fill-opacity="1" fill-rule="nonzero"/></g></svg>