<svg xmlns="http://www.w3.org/2000/svg" xmlns:xlink="http://www.w3.org/1999/xlink" width="260" zoomAndPan="magnify" viewBox="0 0 194.87999 30.000001" height="40" preserveAspectRatio="xMidYMid meet" version="1.0"><defs><g/><clipPath id="d0f46d674b"><path d="M 10.507812 1.160156 L 37.21875 1.160156 L 37.21875 27.871094 L 10.507812 27.871094 Z M 10.507812 1.160156 " clip-rule="nonzero"/></clipPath><clipPath id="491b3220c2"><path d="M 25 8 L 31.546875 8 L 31.546875 21.929688 L 25 21.929688 Z M 25 8 " clip-rule="nonzero"/></clipPath><clipPath id="e7e9247796"><path d="M 16.242188 8 L 23 8 L 23 21.929688 L 16.242188 21.929688 Z M 16.242188 8 " clip-rule="nonzero"/></clipPath><clipPath id="d52060a1a2"><path d="M 17 7.140625 L 24 7.140625 L 24 21 L 17 21 Z M 17 7.140625 " clip-rule="nonzero"/></clipPath><clipPath id="3269194a0e"><path d="M 24 7.140625 L 31 7.140625 L 31 21 L 24 21 Z M 24 7.140625 " clip-rule="nonzero"/></clipPath></defs><g fill="#ffffff" fill-opacity="1"><g transform="translate(60.822376, 7.858075)"><g><path d="M 2.1875 -4.265625 C 2.5 -4.265625 2.773438 -4.195312 3.015625 -4.0625 C 3.265625 -3.9375 3.46875 -3.765625 3.625 -3.546875 C 3.78125 -3.328125 3.867188 -3.082031 3.890625 -2.8125 L 3 -2.8125 C 2.976562 -2.957031 2.929688 -3.085938 2.859375 -3.203125 C 2.785156 -3.316406 2.691406 -3.40625 2.578125 -3.46875 C 2.460938 -3.53125 2.320312 -3.5625 2.15625 -3.5625 C 1.957031 -3.5625 1.785156 -3.515625 1.640625 -3.421875 C 1.503906 -3.328125 1.398438 -3.171875 1.328125 -2.953125 C 1.253906 -2.742188 1.21875 -2.46875 1.21875 -2.125 C 1.21875 -1.601562 1.300781 -1.222656 1.46875 -0.984375 C 1.632812 -0.753906 1.863281 -0.640625 2.15625 -0.640625 C 2.320312 -0.640625 2.460938 -0.675781 2.578125 -0.75 C 2.691406 -0.820312 2.785156 -0.921875 2.859375 -1.046875 C 2.929688 -1.171875 2.976562 -1.304688 3 -1.453125 L 3.890625 -1.453125 C 3.867188 -1.253906 3.820312 -1.0625 3.75 -0.875 C 3.675781 -0.695312 3.570312 -0.535156 3.4375 -0.390625 C 3.3125 -0.253906 3.144531 -0.144531 2.9375 -0.0625 C 2.726562 0.0195312 2.476562 0.0625 2.1875 0.0625 C 1.789062 0.0625 1.445312 -0.0234375 1.15625 -0.203125 C 0.875 -0.390625 0.65625 -0.644531 0.5 -0.96875 C 0.351562 -1.300781 0.28125 -1.691406 0.28125 -2.140625 C 0.28125 -2.578125 0.351562 -2.953125 0.5 -3.265625 C 0.65625 -3.585938 0.875 -3.832031 1.15625 -4 C 1.445312 -4.175781 1.789062 -4.265625 2.1875 -4.265625 Z M 2.1875 -4.265625 "/></g></g></g><g fill="#ffffff" fill-opacity="1"><g transform="translate(64.991443, 7.858075)"><g><path d="M 0.15625 0 L 1.671875 -4.203125 L 2.5625 -4.203125 L 4.0625 0 L 3.21875 0 L 2.875 -0.96875 L 1.359375 -0.96875 L 1.015625 0 Z M 1.546875 -1.71875 L 2.671875 -1.71875 L 2.109375 -3.390625 Z M 2.484375 -4.5625 L 2.109375 -4.96875 L 1.6875 -4.5625 L 1.046875 -4.5625 L 1.8125 -5.3125 L 2.40625 -5.3125 L 3.15625 -4.5625 Z M 2.484375 -4.5625 "/></g></g></g><g fill="#ffffff" fill-opacity="1"><g transform="translate(69.209868, 7.858075)"><g><path d="M 3.828125 -1.59375 C 3.828125 -1.257812 3.769531 -0.96875 3.65625 -0.71875 C 3.550781 -0.46875 3.375 -0.273438 3.125 -0.140625 C 2.882812 -0.00390625 2.5625 0.0625 2.15625 0.0625 C 1.738281 0.0625 1.40625 -0.00390625 1.15625 -0.140625 C 0.914062 -0.285156 0.738281 -0.484375 0.625 -0.734375 C 0.519531 -0.984375 0.46875 -1.28125 0.46875 -1.625 L 0.46875 -4.203125 L 1.328125 -4.203125 L 1.328125 -1.5625 C 1.328125 -1.25 1.398438 -1.019531 1.546875 -0.875 C 1.703125 -0.726562 1.90625 -0.65625 2.15625 -0.65625 C 2.3125 -0.65625 2.453125 -0.6875 2.578125 -0.75 C 2.703125 -0.8125 2.796875 -0.910156 2.859375 -1.046875 C 2.929688 -1.179688 2.96875 -1.351562 2.96875 -1.5625 L 2.96875 -4.203125 L 3.828125 -4.203125 Z M 3.828125 -1.59375 "/></g></g></g><g fill="#ffffff" fill-opacity="1"><g transform="translate(73.413777, 7.858075)"><g/></g></g><g fill="#ffffff" fill-opacity="1"><g transform="translate(74.644757, 7.858075)"><g><path d="M 0.46875 -4.203125 L 1.328125 -4.203125 L 1.328125 -0.71875 L 3.15625 -0.71875 L 3.15625 0 L 0.46875 0 Z M 0.46875 -4.203125 "/></g></g></g><g fill="#ffffff" fill-opacity="1"><g transform="translate(77.998014, 7.858075)"><g><path d="M 0.15625 0 L 1.671875 -4.203125 L 2.5625 -4.203125 L 4.0625 0 L 3.21875 0 L 2.875 -0.96875 L 1.359375 -0.96875 L 1.015625 0 Z M 1.546875 -1.71875 L 2.671875 -1.71875 L 2.109375 -3.390625 Z M 1.71875 1.15625 L 1.71875 0.46875 L 2.53125 0.46875 L 2.53125 1.15625 Z M 1.71875 1.15625 "/></g></g></g><g fill="#ffffff" fill-opacity="1"><g transform="translate(82.216439, 7.858075)"><g><path d="M 2.1875 -4.265625 C 2.5 -4.265625 2.773438 -4.195312 3.015625 -4.0625 C 3.265625 -3.9375 3.46875 -3.765625 3.625 -3.546875 C 3.78125 -3.328125 3.867188 -3.082031 3.890625 -2.8125 L 3 -2.8125 C 2.976562 -2.957031 2.929688 -3.085938 2.859375 -3.203125 C 2.785156 -3.316406 2.691406 -3.40625 2.578125 -3.46875 C 2.460938 -3.53125 2.320312 -3.5625 2.15625 -3.5625 C 1.957031 -3.5625 1.785156 -3.515625 1.640625 -3.421875 C 1.503906 -3.328125 1.398438 -3.171875 1.328125 -2.953125 C 1.253906 -2.742188 1.21875 -2.46875 1.21875 -2.125 C 1.21875 -1.601562 1.300781 -1.222656 1.46875 -0.984375 C 1.632812 -0.753906 1.863281 -0.640625 2.15625 -0.640625 C 2.320312 -0.640625 2.460938 -0.675781 2.578125 -0.75 C 2.691406 -0.820312 2.785156 -0.921875 2.859375 -1.046875 C 2.929688 -1.171875 2.976562 -1.304688 3 -1.453125 L 3.890625 -1.453125 C 3.867188 -1.253906 3.820312 -1.0625 3.75 -0.875 C 3.675781 -0.695312 3.570312 -0.535156 3.4375 -0.390625 C 3.3125 -0.253906 3.144531 -0.144531 2.9375 -0.0625 C 2.726562 0.0195312 2.476562 0.0625 2.1875 0.0625 C 1.789062 0.0625 1.445312 -0.0234375 1.15625 -0.203125 C 0.875 -0.390625 0.65625 -0.644531 0.5 -0.96875 C 0.351562 -1.300781 0.28125 -1.691406 0.28125 -2.140625 C 0.28125 -2.578125 0.351562 -2.953125 0.5 -3.265625 C 0.65625 -3.585938 0.875 -3.832031 1.15625 -4 C 1.445312 -4.175781 1.789062 -4.265625 2.1875 -4.265625 Z M 2.1875 -4.265625 "/></g></g></g><g fill="#ffffff" fill-opacity="1"><g transform="translate(86.385507, 7.858075)"><g/></g></g><g fill="#ffffff" fill-opacity="1"><g transform="translate(87.616487, 7.858075)"><g><path d="M 0.46875 0 L 0.46875 -4.203125 L 2 -4.203125 C 2.539062 -4.203125 2.945312 -4.109375 3.21875 -3.921875 C 3.488281 -3.734375 3.625 -3.457031 3.625 -3.09375 C 3.625 -2.882812 3.566406 -2.703125 3.453125 -2.546875 C 3.347656 -2.398438 3.160156 -2.269531 2.890625 -2.15625 C 3.066406 -2.113281 3.207031 -2.050781 3.3125 -1.96875 C 3.425781 -1.894531 3.507812 -1.8125 3.5625 -1.71875 C 3.625 -1.625 3.664062 -1.523438 3.6875 -1.421875 C 3.707031 -1.328125 3.71875 -1.234375 3.71875 -1.140625 C 3.71875 -0.753906 3.582031 -0.46875 3.3125 -0.28125 C 3.050781 -0.09375 2.632812 0 2.0625 0 Z M 1.3125 -0.65625 L 2.078125 -0.65625 C 2.335938 -0.65625 2.53125 -0.707031 2.65625 -0.8125 C 2.789062 -0.914062 2.859375 -1.050781 2.859375 -1.21875 C 2.859375 -1.34375 2.828125 -1.445312 2.765625 -1.53125 C 2.703125 -1.613281 2.613281 -1.675781 2.5 -1.71875 C 2.394531 -1.769531 2.269531 -1.796875 2.125 -1.796875 L 1.3125 -1.796875 Z M 1.3125 -2.46875 L 2.125 -2.46875 C 2.21875 -2.46875 2.300781 -2.476562 2.375 -2.5 C 2.457031 -2.519531 2.53125 -2.550781 2.59375 -2.59375 C 2.65625 -2.632812 2.703125 -2.6875 2.734375 -2.75 C 2.773438 -2.820312 2.796875 -2.898438 2.796875 -2.984375 C 2.796875 -3.171875 2.726562 -3.3125 2.59375 -3.40625 C 2.457031 -3.5 2.28125 -3.546875 2.0625 -3.546875 L 1.3125 -3.546875 Z M 1.3125 -2.46875 "/></g></g></g><g fill="#ffffff" fill-opacity="1"><g transform="translate(91.591034, 7.858075)"><g><path d="M 2.21875 0.0625 C 1.820312 0.0625 1.476562 -0.0234375 1.1875 -0.203125 C 0.894531 -0.378906 0.671875 -0.625 0.515625 -0.9375 C 0.359375 -1.257812 0.28125 -1.644531 0.28125 -2.09375 C 0.28125 -2.539062 0.359375 -2.925781 0.515625 -3.25 C 0.679688 -3.570312 0.90625 -3.820312 1.1875 -4 C 1.476562 -4.175781 1.820312 -4.265625 2.21875 -4.265625 C 2.601562 -4.265625 2.941406 -4.175781 3.234375 -4 C 3.523438 -3.820312 3.75 -3.570312 3.90625 -3.25 C 4.0625 -2.925781 4.140625 -2.539062 4.140625 -2.09375 C 4.140625 -1.644531 4.0625 -1.257812 3.90625 -0.9375 C 3.75 -0.625 3.523438 -0.378906 3.234375 -0.203125 C 2.953125 -0.0234375 2.613281 0.0625 2.21875 0.0625 Z M 2.21875 -0.640625 C 2.425781 -0.640625 2.601562 -0.6875 2.75 -0.78125 C 2.894531 -0.882812 3.007812 -1.039062 3.09375 -1.25 C 3.175781 -1.457031 3.21875 -1.734375 3.21875 -2.078125 C 3.21875 -2.429688 3.175781 -2.71875 3.09375 -2.9375 C 3.007812 -3.15625 2.890625 -3.3125 2.734375 -3.40625 C 2.585938 -3.507812 2.414062 -3.5625 2.21875 -3.5625 C 2.007812 -3.5625 1.828125 -3.507812 1.671875 -3.40625 C 1.523438 -3.3125 1.410156 -3.15625 1.328125 -2.9375 C 1.242188 -2.71875 1.203125 -2.429688 1.203125 -2.078125 C 1.203125 -1.734375 1.242188 -1.457031 1.328125 -1.25 C 1.410156 -1.039062 1.523438 -0.882812 1.671875 -0.78125 C 1.828125 -0.6875 2.007812 -0.640625 2.21875 -0.640625 Z M 1.828125 1.15625 L 1.828125 0.46875 L 2.640625 0.46875 L 2.640625 1.15625 Z M 2.59375 -4.5625 L 2.21875 -4.96875 L 1.796875 -4.5625 L 1.15625 -4.5625 L 1.921875 -5.3125 L 2.515625 -5.3125 L 3.265625 -4.5625 Z M 2.59375 -4.5625 "/></g></g></g><g fill="#ffffff" fill-opacity="1"><g transform="translate(96.006881, 7.858075)"><g/></g></g><g fill="#ffffff" fill-opacity="1"><g transform="translate(97.237861, 7.858075)"><g><path d="M 3.15625 -1.8125 L 1.3125 -1.8125 L 1.3125 0 L 0.46875 0 L 0.46875 -4.203125 L 1.3125 -4.203125 L 1.3125 -2.515625 L 3.15625 -2.515625 L 3.15625 -4.203125 L 4 -4.203125 L 4 0 L 3.15625 0 Z M 3.15625 -1.8125 "/></g></g></g><g fill="#ffffff" fill-opacity="1"><g transform="translate(101.708868, 7.858075)"><g><path d="M 2.21875 0.0625 C 1.820312 0.0625 1.476562 -0.0234375 1.1875 -0.203125 C 0.894531 -0.378906 0.671875 -0.625 0.515625 -0.9375 C 0.359375 -1.257812 0.28125 -1.644531 0.28125 -2.09375 C 0.28125 -2.539062 0.359375 -2.925781 0.515625 -3.25 C 0.679688 -3.570312 0.90625 -3.820312 1.1875 -4 C 1.476562 -4.175781 1.820312 -4.265625 2.21875 -4.265625 C 2.601562 -4.265625 2.941406 -4.175781 3.234375 -4 C 3.523438 -3.820312 3.75 -3.570312 3.90625 -3.25 C 4.0625 -2.925781 4.140625 -2.539062 4.140625 -2.09375 C 4.140625 -1.644531 4.0625 -1.257812 3.90625 -0.9375 C 3.75 -0.625 3.523438 -0.378906 3.234375 -0.203125 C 2.953125 -0.0234375 2.613281 0.0625 2.21875 0.0625 Z M 2.21875 -0.640625 C 2.425781 -0.640625 2.601562 -0.6875 2.75 -0.78125 C 2.894531 -0.882812 3.007812 -1.039062 3.09375 -1.25 C 3.175781 -1.457031 3.21875 -1.734375 3.21875 -2.078125 C 3.21875 -2.429688 3.175781 -2.71875 3.09375 -2.9375 C 3.007812 -3.15625 2.890625 -3.3125 2.734375 -3.40625 C 2.585938 -3.507812 2.414062 -3.5625 2.21875 -3.5625 C 2.007812 -3.5625 1.828125 -3.507812 1.671875 -3.40625 C 1.523438 -3.3125 1.410156 -3.15625 1.328125 -2.9375 C 1.242188 -2.71875 1.203125 -2.429688 1.203125 -2.078125 C 1.203125 -1.734375 1.242188 -1.457031 1.328125 -1.25 C 1.410156 -1.039062 1.523438 -0.882812 1.671875 -0.78125 C 1.828125 -0.6875 2.007812 -0.640625 2.21875 -0.640625 Z M 1.828125 1.15625 L 1.828125 0.46875 L 2.640625 0.46875 L 2.640625 1.15625 Z M 1.828125 1.15625 "/></g></g></g><g fill="#ffffff" fill-opacity="1"><g transform="translate(106.124715, 7.858075)"><g><path d="M 2.1875 -4.265625 C 2.5 -4.265625 2.773438 -4.195312 3.015625 -4.0625 C 3.265625 -3.9375 3.46875 -3.765625 3.625 -3.546875 C 3.78125 -3.328125 3.867188 -3.082031 3.890625 -2.8125 L 3 -2.8125 C 2.976562 -2.957031 2.929688 -3.085938 2.859375 -3.203125 C 2.785156 -3.316406 2.691406 -3.40625 2.578125 -3.46875 C 2.460938 -3.53125 2.320312 -3.5625 2.15625 -3.5625 C 1.957031 -3.5625 1.785156 -3.515625 1.640625 -3.421875 C 1.503906 -3.328125 1.398438 -3.171875 1.328125 -2.953125 C 1.253906 -2.742188 1.21875 -2.46875 1.21875 -2.125 C 1.21875 -1.601562 1.300781 -1.222656 1.46875 -0.984375 C 1.632812 -0.753906 1.863281 -0.640625 2.15625 -0.640625 C 2.320312 -0.640625 2.460938 -0.675781 2.578125 -0.75 C 2.691406 -0.820312 2.785156 -0.921875 2.859375 -1.046875 C 2.929688 -1.171875 2.976562 -1.304688 3 -1.453125 L 3.890625 -1.453125 C 3.867188 -1.253906 3.820312 -1.0625 3.75 -0.875 C 3.675781 -0.695312 3.570312 -0.535156 3.4375 -0.390625 C 3.3125 -0.253906 3.144531 -0.144531 2.9375 -0.0625 C 2.726562 0.0195312 2.476562 0.0625 2.1875 0.0625 C 1.789062 0.0625 1.445312 -0.0234375 1.15625 -0.203125 C 0.875 -0.390625 0.65625 -0.644531 0.5 -0.96875 C 0.351562 -1.300781 0.28125 -1.691406 0.28125 -2.140625 C 0.28125 -2.578125 0.351562 -2.953125 0.5 -3.265625 C 0.65625 -3.585938 0.875 -3.832031 1.15625 -4 C 1.445312 -4.175781 1.789062 -4.265625 2.1875 -4.265625 Z M 2.1875 -4.265625 "/></g></g></g><g fill="#ffffff" fill-opacity="1"><g transform="translate(110.293782, 7.858075)"><g/></g></g><g fill="#ffffff" fill-opacity="1"><g transform="translate(111.524762, 7.858075)"><g><path d="M 0.109375 -3.453125 L 0.109375 -4.203125 L 3.46875 -4.203125 L 3.46875 -3.453125 L 2.234375 -3.453125 L 2.234375 0 L 1.375 0 L 1.375 -3.453125 Z M 0.109375 -3.453125 "/></g></g></g><g fill="#ffffff" fill-opacity="1"><g transform="translate(115.101571, 7.858075)"><g><path d="M 0.15625 0 L 1.671875 -4.203125 L 2.5625 -4.203125 L 4.0625 0 L 3.21875 0 L 2.875 -0.96875 L 1.359375 -0.96875 L 1.015625 0 Z M 1.546875 -1.71875 L 2.671875 -1.71875 L 2.109375 -3.390625 Z M 1.71875 1.15625 L 1.71875 0.46875 L 2.53125 0.46875 L 2.53125 1.15625 Z M 2.484375 -4.5625 L 2.109375 -4.96875 L 1.6875 -4.5625 L 1.046875 -4.5625 L 1.8125 -5.3125 L 2.40625 -5.3125 L 3.15625 -4.5625 Z M 2.484375 -4.5625 "/></g></g></g><g fill="#ffffff" fill-opacity="1"><g transform="translate(119.319996, 7.858075)"><g><path d="M 0.46875 0 L 0.46875 -4.203125 L 2.015625 -4.203125 C 2.316406 -4.203125 2.585938 -4.148438 2.828125 -4.046875 C 3.078125 -3.941406 3.269531 -3.785156 3.40625 -3.578125 C 3.550781 -3.367188 3.625 -3.117188 3.625 -2.828125 C 3.625 -2.546875 3.5625 -2.304688 3.4375 -2.109375 C 3.3125 -1.910156 3.132812 -1.757812 2.90625 -1.65625 C 2.6875 -1.550781 2.425781 -1.5 2.125 -1.5 L 1.328125 -1.5 L 1.328125 0 Z M 1.3125 -2.15625 L 2.109375 -2.15625 C 2.316406 -2.15625 2.488281 -2.222656 2.625 -2.359375 C 2.757812 -2.492188 2.828125 -2.664062 2.828125 -2.875 C 2.828125 -3.082031 2.753906 -3.242188 2.609375 -3.359375 C 2.472656 -3.484375 2.300781 -3.546875 2.09375 -3.546875 L 1.3125 -3.546875 Z M 1.3125 -2.15625 "/></g></g></g><g fill="#ffffff" fill-opacity="1"><g transform="translate(123.108735, 7.858075)"><g/></g></g><g fill="#ffffff" fill-opacity="1"><g transform="translate(124.339715, 7.858075)"><g><path d="M 4.015625 0 L 3.09375 0 L 1.96875 -1.953125 L 1.34375 -1.203125 L 1.34375 0 L 0.46875 0 L 0.46875 -4.203125 L 1.34375 -4.203125 L 1.34375 -2.28125 L 2.890625 -4.203125 L 3.859375 -4.203125 L 2.578125 -2.578125 Z M 4.015625 0 "/></g></g></g><g fill="#ffffff" fill-opacity="1"><g transform="translate(128.502979, 7.858075)"><g><path d="M 3.15625 -1.8125 L 1.3125 -1.8125 L 1.3125 0 L 0.46875 0 L 0.46875 -4.203125 L 1.3125 -4.203125 L 1.3125 -2.515625 L 3.15625 -2.515625 L 3.15625 -4.203125 L 4 -4.203125 L 4 0 L 3.15625 0 Z M 3.15625 -1.8125 "/></g></g></g><g fill="#ffffff" fill-opacity="1"><g transform="translate(132.973987, 7.858075)"><g><path d="M 2.21875 0.0625 C 1.820312 0.0625 1.476562 -0.0234375 1.1875 -0.203125 C 0.894531 -0.378906 0.671875 -0.625 0.515625 -0.9375 C 0.359375 -1.257812 0.28125 -1.644531 0.28125 -2.09375 C 0.28125 -2.539062 0.359375 -2.925781 0.515625 -3.25 C 0.679688 -3.570312 0.90625 -3.820312 1.1875 -4 C 1.476562 -4.175781 1.820312 -4.265625 2.21875 -4.265625 C 2.601562 -4.265625 2.941406 -4.175781 3.234375 -4 C 3.523438 -3.820312 3.75 -3.570312 3.90625 -3.25 C 4.0625 -2.925781 4.140625 -2.539062 4.140625 -2.09375 C 4.140625 -1.644531 4.0625 -1.257812 3.90625 -0.9375 C 3.75 -0.625 3.523438 -0.378906 3.234375 -0.203125 C 2.953125 -0.0234375 2.613281 0.0625 2.21875 0.0625 Z M 2.21875 -0.640625 C 2.425781 -0.640625 2.601562 -0.6875 2.75 -0.78125 C 2.894531 -0.882812 3.007812 -1.039062 3.09375 -1.25 C 3.175781 -1.457031 3.21875 -1.734375 3.21875 -2.078125 C 3.21875 -2.429688 3.175781 -2.71875 3.09375 -2.9375 C 3.007812 -3.15625 2.890625 -3.3125 2.734375 -3.40625 C 2.585938 -3.507812 2.414062 -3.5625 2.21875 -3.5625 C 2.007812 -3.5625 1.828125 -3.507812 1.671875 -3.40625 C 1.523438 -3.3125 1.410156 -3.15625 1.328125 -2.9375 C 1.242188 -2.71875 1.203125 -2.429688 1.203125 -2.078125 C 1.203125 -1.734375 1.242188 -1.457031 1.328125 -1.25 C 1.410156 -1.039062 1.523438 -0.882812 1.671875 -0.78125 C 1.828125 -0.6875 2.007812 -0.640625 2.21875 -0.640625 Z M 2.21875 -0.640625 "/></g></g></g><g fill="#ffffff" fill-opacity="1"><g transform="translate(137.389833, 7.858075)"><g><path d="M 0.15625 0 L 1.671875 -4.203125 L 2.5625 -4.203125 L 4.0625 0 L 3.21875 0 L 2.875 -0.96875 L 1.359375 -0.96875 L 1.015625 0 Z M 1.546875 -1.71875 L 2.671875 -1.71875 L 2.109375 -3.390625 Z M 1.546875 -1.71875 "/></g></g></g><g fill="#ffffff" fill-opacity="1"><g transform="translate(141.608258, 7.858075)"><g/></g></g><g fill="#ffffff" fill-opacity="1"><g transform="translate(142.839238, 7.858075)"><g><path d="M 2.1875 -4.265625 C 2.5 -4.265625 2.773438 -4.195312 3.015625 -4.0625 C 3.265625 -3.9375 3.46875 -3.765625 3.625 -3.546875 C 3.78125 -3.328125 3.867188 -3.082031 3.890625 -2.8125 L 3 -2.8125 C 2.976562 -2.957031 2.929688 -3.085938 2.859375 -3.203125 C 2.785156 -3.316406 2.691406 -3.40625 2.578125 -3.46875 C 2.460938 -3.53125 2.320312 -3.5625 2.15625 -3.5625 C 1.957031 -3.5625 1.785156 -3.515625 1.640625 -3.421875 C 1.503906 -3.328125 1.398438 -3.171875 1.328125 -2.953125 C 1.253906 -2.742188 1.21875 -2.46875 1.21875 -2.125 C 1.21875 -1.601562 1.300781 -1.222656 1.46875 -0.984375 C 1.632812 -0.753906 1.863281 -0.640625 2.15625 -0.640625 C 2.320312 -0.640625 2.460938 -0.675781 2.578125 -0.75 C 2.691406 -0.820312 2.785156 -0.921875 2.859375 -1.046875 C 2.929688 -1.171875 2.976562 -1.304688 3 -1.453125 L 3.890625 -1.453125 C 3.867188 -1.253906 3.820312 -1.0625 3.75 -0.875 C 3.675781 -0.695312 3.570312 -0.535156 3.4375 -0.390625 C 3.3125 -0.253906 3.144531 -0.144531 2.9375 -0.0625 C 2.726562 0.0195312 2.476562 0.0625 2.1875 0.0625 C 1.789062 0.0625 1.445312 -0.0234375 1.15625 -0.203125 C 0.875 -0.390625 0.65625 -0.644531 0.5 -0.96875 C 0.351562 -1.300781 0.28125 -1.691406 0.28125 -2.140625 C 0.28125 -2.578125 0.351562 -2.953125 0.5 -3.265625 C 0.65625 -3.585938 0.875 -3.832031 1.15625 -4 C 1.445312 -4.175781 1.789062 -4.265625 2.1875 -4.265625 Z M 2.1875 -4.265625 "/></g></g></g><g fill="#ffffff" fill-opacity="1"><g transform="translate(147.008306, 7.858075)"><g><path d="M 3.234375 -4.203125 L 4.078125 -4.203125 L 4.078125 0 L 3.3125 0 L 1.3125 -2.890625 L 1.3125 0 L 0.46875 0 L 0.46875 -4.203125 L 1.3125 -4.203125 L 3.234375 -1.421875 Z M 3.234375 -4.203125 "/></g></g></g><g fill="#ffffff" fill-opacity="1"><g transform="translate(151.548989, 7.858075)"><g><path d="M 0.109375 -3.453125 L 0.109375 -4.203125 L 3.46875 -4.203125 L 3.46875 -3.453125 L 2.234375 -3.453125 L 2.234375 0 L 1.375 0 L 1.375 -3.453125 Z M 0.109375 -3.453125 "/></g></g></g><g fill="#ffffff" fill-opacity="1"><g transform="translate(155.125798, 7.858075)"><g><path d="M 0.109375 -3.453125 L 0.109375 -4.203125 L 3.46875 -4.203125 L 3.46875 -3.453125 L 2.234375 -3.453125 L 2.234375 0 L 1.375 0 L 1.375 -3.453125 Z M 0.109375 -3.453125 "/></g></g></g><g clip-path="url(#d0f46d674b)"><path fill="#004aad" d="M 36.796875 14.554688 C 36.796875 13.160156 37.488281 11.679688 37.0625 10.425781 C 36.625 9.121094 35.140625 8.320312 34.320312 7.234375 C 33.492188 6.140625 33.152344 4.542969 32.015625 3.746094 C 30.886719 2.960938 29.203125 3.136719 27.851562 2.710938 C 26.542969 2.304688 25.300781 1.191406 23.851562 1.191406 C 22.402344 1.191406 21.152344 2.300781 19.851562 2.710938 C 18.5 3.132812 16.8125 2.957031 15.683594 3.746094 C 14.546875 4.542969 14.203125 6.140625 13.375 7.234375 C 12.554688 8.320312 11.074219 9.121094 10.628906 10.425781 C 10.207031 11.679688 10.898438 13.160156 10.898438 14.554688 C 10.898438 15.949219 10.203125 17.425781 10.628906 18.683594 C 11.066406 19.984375 12.554688 20.789062 13.371094 21.871094 C 14.199219 22.96875 14.539062 24.5625 15.679688 25.359375 C 16.804688 26.152344 18.488281 25.972656 19.84375 26.398438 C 21.152344 26.800781 22.398438 27.914062 23.847656 27.914062 C 25.292969 27.914062 26.542969 26.808594 27.847656 26.398438 C 29.199219 25.972656 30.886719 26.152344 32.015625 25.359375 C 33.152344 24.5625 33.492188 22.96875 34.320312 21.871094 C 35.144531 20.789062 36.625 19.984375 37.0625 18.683594 C 37.488281 17.421875 36.796875 15.941406 36.796875 14.554688 Z M 36.796875 14.554688 " fill-opacity="1" fill-rule="nonzero"/></g><g clip-path="url(#491b3220c2)"><path fill="#ffffff" d="M 30.757812 8.648438 L 30.757812 18.539062 L 25.527344 20.808594 L 25.527344 21.929688 L 31.546875 19.320312 L 31.546875 8.308594 L 30.757812 8.648438 " fill-opacity="1" fill-rule="nonzero"/></g><g clip-path="url(#e7e9247796)"><path fill="#ffffff" d="M 17.03125 8.648438 L 17.03125 18.539062 L 22.261719 20.808594 L 22.261719 21.929688 L 16.242188 19.320312 L 16.242188 8.308594 L 17.03125 8.648438 " fill-opacity="1" fill-rule="nonzero"/></g><g clip-path="url(#d52060a1a2)"><path fill="#ffffff" d="M 17.511719 13.699219 C 18.234375 13.703125 18.863281 13.683594 19.382812 13.597656 C 19.492188 13.578125 19.59375 13.511719 19.695312 13.472656 C 19.730469 13.460938 19.765625 13.449219 19.800781 13.4375 C 19.933594 13.390625 20.058594 13.351562 20.160156 13.324219 C 20.304688 13.285156 20.453125 13.25 20.574219 13.167969 C 20.582031 13.164062 20.585938 13.160156 20.59375 13.15625 C 20.601562 13.148438 20.613281 13.144531 20.625 13.136719 C 20.648438 13.121094 20.667969 13.105469 20.691406 13.09375 C 20.707031 13.085938 20.722656 13.074219 20.742188 13.066406 C 21 12.929688 21.324219 12.847656 21.453125 12.820312 C 21.488281 12.808594 21.507812 12.804688 21.507812 12.804688 C 21.523438 12.804688 21.535156 12.800781 21.546875 12.800781 C 21.601562 12.796875 21.636719 12.824219 21.652344 12.851562 C 21.664062 12.863281 21.671875 12.878906 21.671875 12.890625 C 21.703125 12.988281 21.554688 13.058594 21.554688 13.058594 C 21.351562 13.152344 21.148438 13.234375 21.039062 13.308594 C 20.621094 13.585938 20.710938 13.636719 20.710938 13.636719 C 20.722656 13.640625 20.742188 13.644531 20.761719 13.644531 C 20.847656 13.644531 20.988281 13.613281 21.144531 13.578125 C 21.183594 13.570312 21.222656 13.5625 21.261719 13.554688 C 21.339844 13.539062 21.417969 13.523438 21.488281 13.515625 C 21.523438 13.511719 21.554688 13.507812 21.585938 13.507812 C 21.753906 13.488281 21.925781 13.472656 22.09375 13.453125 C 22.199219 13.441406 22.363281 13.429688 22.4375 13.519531 C 22.457031 13.539062 22.46875 13.5625 22.476562 13.597656 C 22.5 13.734375 22.261719 13.785156 22.261719 13.785156 C 21.90625 13.792969 21.664062 13.859375 21.46875 13.882812 C 21.230469 13.910156 21.113281 13.945312 21.058594 13.972656 C 21.03125 13.984375 21.019531 13.996094 21.011719 14.007812 C 21.007812 14.011719 21.007812 14.019531 21.007812 14.023438 C 21.007812 14.027344 21.011719 14.03125 21.011719 14.03125 C 21.015625 14.039062 21.027344 14.046875 21.046875 14.050781 C 21.160156 14.082031 21.507812 14.078125 21.71875 14.082031 C 21.996094 14.085938 22.269531 14.085938 22.546875 14.085938 C 22.582031 14.085938 22.621094 14.085938 22.65625 14.097656 C 22.664062 14.101562 22.675781 14.105469 22.683594 14.109375 C 22.683594 14.109375 22.6875 14.109375 22.6875 14.113281 C 22.695312 14.113281 22.699219 14.117188 22.707031 14.121094 C 22.707031 14.125 22.710938 14.125 22.710938 14.128906 C 22.71875 14.132812 22.726562 14.136719 22.730469 14.144531 C 22.734375 14.148438 22.738281 14.152344 22.742188 14.15625 C 22.742188 14.160156 22.746094 14.160156 22.746094 14.164062 C 22.761719 14.179688 22.769531 14.199219 22.777344 14.21875 C 22.785156 14.242188 22.785156 14.269531 22.777344 14.289062 C 22.742188 14.410156 22.613281 14.4375 22.503906 14.441406 C 22.253906 14.449219 22.007812 14.492188 21.757812 14.496094 C 21.105469 14.503906 21.082031 14.574219 21.074219 14.605469 C 21.0625 14.644531 21.828125 14.738281 22.074219 14.753906 C 22.09375 14.753906 22.113281 14.757812 22.132812 14.761719 C 22.25 14.773438 22.378906 14.78125 22.480469 14.851562 C 22.546875 14.898438 22.640625 15 22.5625 15.078125 C 22.519531 15.125 22.414062 15.160156 22.351562 15.15625 C 21.917969 15.128906 21.597656 15.070312 21.375 15.089844 C 21.078125 15.113281 20.523438 15.054688 20.460938 15.175781 C 20.402344 15.289062 20.445312 15.417969 20.503906 15.511719 C 20.53125 15.558594 20.5625 15.597656 20.585938 15.617188 L 20.589844 15.621094 C 20.597656 15.628906 20.605469 15.632812 20.609375 15.636719 C 20.667969 15.667969 20.75 15.738281 20.820312 15.820312 C 20.824219 15.824219 20.828125 15.828125 20.832031 15.835938 C 20.863281 15.871094 20.890625 15.910156 20.910156 15.949219 C 20.957031 16.023438 20.984375 16.101562 20.972656 16.164062 C 20.945312 16.320312 20.78125 16.195312 20.671875 16.109375 C 20.65625 16.097656 20.640625 16.085938 20.628906 16.074219 C 20.527344 16 20.246094 15.9375 20.183594 15.867188 C 20.152344 15.835938 20.117188 15.804688 20.085938 15.773438 L 20.082031 15.769531 C 19.636719 15.351562 19.085938 15.195312 19.074219 15.191406 C 18.878906 15.140625 18.285156 15.09375 17.511719 15.0625 L 17.511719 18.152344 L 23.527344 20.765625 L 23.527344 9.753906 L 17.511719 7.144531 L 17.511719 13.699219 " fill-opacity="1" fill-rule="nonzero"/></g><g clip-path="url(#3269194a0e)"><path fill="#ffffff" d="M 27.398438 12.699219 C 27.414062 12.710938 27.433594 12.726562 27.445312 12.734375 C 27.5625 12.824219 27.886719 12.894531 27.957031 12.972656 C 27.992188 13.011719 28.03125 13.046875 28.066406 13.082031 L 28.070312 13.085938 C 28.582031 13.566406 29.214844 13.742188 29.226562 13.746094 C 29.382812 13.789062 29.761719 13.828125 30.277344 13.859375 L 30.277344 7.144531 L 24.257812 9.753906 L 24.257812 20.765625 L 30.277344 18.152344 L 30.277344 15.460938 C 29.753906 15.476562 29.285156 15.507812 28.875 15.578125 C 28.746094 15.597656 28.632812 15.671875 28.515625 15.714844 C 28.472656 15.730469 28.433594 15.746094 28.398438 15.757812 C 28.242188 15.8125 28.101562 15.859375 27.980469 15.890625 C 27.820312 15.929688 27.648438 15.972656 27.507812 16.066406 C 27.5 16.070312 27.496094 16.074219 27.488281 16.078125 C 27.476562 16.085938 27.464844 16.09375 27.453125 16.101562 C 27.425781 16.121094 27.398438 16.136719 27.375 16.152344 C 27.355469 16.160156 27.335938 16.171875 27.320312 16.179688 C 27.019531 16.339844 26.648438 16.433594 26.503906 16.464844 C 26.460938 16.476562 26.4375 16.480469 26.4375 16.480469 C 26.421875 16.484375 26.40625 16.488281 26.394531 16.488281 C 26.332031 16.492188 26.292969 16.460938 26.273438 16.429688 C 26.261719 16.414062 26.253906 16.398438 26.25 16.386719 C 26.21875 16.273438 26.382812 16.191406 26.382812 16.191406 C 26.617188 16.085938 26.851562 15.988281 26.976562 15.90625 C 27.457031 15.589844 27.351562 15.53125 27.351562 15.53125 C 27.335938 15.523438 27.316406 15.523438 27.292969 15.523438 C 27.195312 15.519531 27.03125 15.558594 26.855469 15.597656 C 26.8125 15.605469 26.765625 15.613281 26.722656 15.625 C 26.632812 15.640625 26.542969 15.660156 26.460938 15.667969 C 26.421875 15.671875 26.386719 15.675781 26.347656 15.679688 C 26.15625 15.699219 25.960938 15.71875 25.769531 15.738281 C 25.648438 15.753906 25.460938 15.769531 25.371094 15.664062 C 25.351562 15.640625 25.339844 15.613281 25.332031 15.574219 C 25.300781 15.417969 25.578125 15.359375 25.578125 15.359375 C 25.980469 15.351562 26.257812 15.277344 26.488281 15.25 C 26.757812 15.214844 26.890625 15.175781 26.957031 15.144531 C 26.984375 15.128906 27 15.117188 27.007812 15.105469 C 27.011719 15.097656 27.011719 15.09375 27.011719 15.089844 C 27.011719 15.082031 27.007812 15.074219 27.007812 15.074219 C 27.003906 15.066406 26.988281 15.058594 26.96875 15.054688 C 26.839844 15.015625 26.441406 15.023438 26.199219 15.019531 C 25.882812 15.015625 25.566406 15.011719 25.25 15.011719 C 25.207031 15.011719 25.164062 15.011719 25.121094 15 C 25.113281 15 25.105469 14.996094 25.09375 14.988281 C 25.09375 14.988281 25.089844 14.988281 25.085938 14.984375 C 25.082031 14.980469 25.074219 14.976562 25.066406 14.972656 C 25.066406 14.972656 25.0625 14.96875 25.058594 14.96875 C 25.050781 14.960938 25.046875 14.953125 25.039062 14.949219 C 25.035156 14.945312 25.03125 14.9375 25.027344 14.933594 C 25.023438 14.929688 25.023438 14.929688 25.019531 14.925781 C 25.003906 14.90625 24.992188 14.882812 24.988281 14.859375 C 24.976562 14.835938 24.976562 14.808594 24.984375 14.78125 C 25.023438 14.644531 25.171875 14.613281 25.296875 14.609375 C 25.582031 14.597656 25.867188 14.550781 26.15625 14.546875 C 26.902344 14.535156 26.925781 14.457031 26.9375 14.421875 C 26.949219 14.378906 26.070312 14.269531 25.789062 14.25 C 25.769531 14.246094 25.75 14.246094 25.722656 14.242188 C 25.589844 14.230469 25.441406 14.21875 25.328125 14.136719 C 25.25 14.082031 25.140625 13.96875 25.230469 13.878906 C 25.28125 13.824219 25.398438 13.785156 25.472656 13.789062 C 25.96875 13.820312 26.335938 13.886719 26.589844 13.867188 C 26.933594 13.835938 27.570312 13.90625 27.640625 13.765625 C 27.707031 13.636719 27.65625 13.488281 27.589844 13.378906 C 27.558594 13.328125 27.523438 13.285156 27.496094 13.257812 L 27.492188 13.253906 C 27.480469 13.25 27.472656 13.242188 27.46875 13.238281 C 27.398438 13.203125 27.308594 13.125 27.226562 13.027344 C 27.222656 13.023438 27.21875 13.019531 27.214844 13.011719 C 27.179688 12.972656 27.148438 12.925781 27.121094 12.882812 C 27.070312 12.796875 27.042969 12.707031 27.054688 12.632812 C 27.082031 12.457031 27.273438 12.601562 27.398438 12.699219 " fill-opacity="1" fill-rule="nonzero"/></g><g fill="#ffffff" fill-opacity="1"><g transform="translate(42.296123, 22.974197)"><g><path d="M 6.734375 -8.953125 L 9.0625 -8.953125 L 9.0625 0 L 6.734375 0 L 6.734375 -3.625 L 3.125 -3.625 L 3.125 0 L 0.8125 0 L 0.8125 -8.953125 L 3.125 -8.953125 L 3.125 -5.46875 L 6.734375 -5.46875 Z M 6.734375 -8.953125 "/></g></g></g><g fill="#ffffff" fill-opacity="1"><g transform="translate(52.156331, 22.974197)"><g><path d="M 0.8125 0 L 0.8125 -8.953125 L 7.1875 -8.953125 L 7.1875 -7.140625 L 3.109375 -7.140625 L 3.109375 -5.453125 L 6.9375 -5.453125 L 6.9375 -3.640625 L 3.109375 -3.640625 L 3.109375 -1.8125 L 7.1875 -1.8125 L 7.1875 0 Z M 3.21875 0.71875 L 5.21875 0.71875 L 5.21875 2.609375 L 3.21875 2.609375 Z M 3.5 -9.71875 L 1.859375 -9.71875 L 3.609375 -11.703125 L 4.84375 -11.703125 L 6.59375 -9.71875 L 4.953125 -9.71875 L 4.234375 -10.703125 Z M 3.5 -9.71875 "/></g></g></g><g fill="#ffffff" fill-opacity="1"><g transform="translate(59.752712, 22.974197)"><g/></g></g><g fill="#ffffff" fill-opacity="1"><g transform="translate(63.399985, 22.974197)"><g><path d="M 2.8125 0 L 2.8125 -7.046875 L 0.15625 -7.046875 L 0.15625 -8.953125 L 7.875 -8.953125 L 7.875 -7.046875 L 5.203125 -7.046875 L 5.203125 0 Z M 2.8125 0 "/></g></g></g><g fill="#ffffff" fill-opacity="1"><g transform="translate(71.42398, 22.974197)"><g><path d="M 6.734375 -8.953125 L 9.0625 -8.953125 L 9.0625 0 L 6.734375 0 L 6.734375 -3.625 L 3.125 -3.625 L 3.125 0 L 0.8125 0 L 0.8125 -8.953125 L 3.125 -8.953125 L 3.125 -5.46875 L 6.734375 -5.46875 Z M 6.734375 -8.953125 "/></g></g></g><g fill="#ffffff" fill-opacity="1"><g transform="translate(81.284187, 22.974197)"><g><path d="M 5.0625 0.109375 C 4.15625 0.109375 3.359375 -0.0703125 2.671875 -0.4375 C 1.992188 -0.8125 1.472656 -1.347656 1.109375 -2.046875 C 0.742188 -2.742188 0.5625 -3.554688 0.5625 -4.484375 C 0.5625 -5.421875 0.742188 -6.234375 1.109375 -6.921875 C 1.484375 -7.609375 2.007812 -8.132812 2.6875 -8.5 C 3.363281 -8.875 4.15625 -9.0625 5.0625 -9.0625 C 5.976562 -9.0625 6.773438 -8.875 7.453125 -8.5 C 8.128906 -8.132812 8.644531 -7.609375 9 -6.921875 C 9.363281 -6.234375 9.546875 -5.421875 9.546875 -4.484375 C 9.546875 -3.554688 9.363281 -2.742188 9 -2.046875 C 8.644531 -1.347656 8.128906 -0.8125 7.453125 -0.4375 C 6.773438 -0.0703125 5.976562 0.109375 5.0625 0.109375 Z M 5.0625 -1.6875 C 5.738281 -1.6875 6.265625 -1.925781 6.640625 -2.40625 C 7.023438 -2.882812 7.21875 -3.578125 7.21875 -4.484375 C 7.21875 -5.390625 7.023438 -6.078125 6.640625 -6.546875 C 6.265625 -7.023438 5.738281 -7.265625 5.0625 -7.265625 C 4.394531 -7.265625 3.875 -7.03125 3.5 -6.5625 C 3.125 -6.09375 2.9375 -5.398438 2.9375 -4.484375 C 2.9375 -3.566406 3.125 -2.867188 3.5 -2.390625 C 3.875 -1.921875 4.394531 -1.6875 5.0625 -1.6875 Z M 7.34375 -11.09375 L 6.296875 -11.09375 L 7.109375 -12.875 L 8.890625 -12.875 Z M 4.296875 -9.71875 L 2.6875 -9.71875 L 4.4375 -11.4375 L 5.671875 -11.4375 L 7.421875 -9.71875 L 5.8125 -9.71875 L 5.0625 -10.46875 Z M 4.296875 -9.71875 "/></g></g></g><g fill="#ffffff" fill-opacity="1"><g transform="translate(91.408509, 22.974197)"><g><path d="M 6.59375 -8.953125 L 8.8125 -8.953125 L 8.8125 0 L 7.0625 0 L 3 -5.078125 L 3 0 L 0.8125 0 L 0.8125 -8.953125 L 2.53125 -8.953125 L 6.59375 -3.90625 Z M 6.59375 -8.953125 "/></g></g></g><g fill="#ffffff" fill-opacity="1"><g transform="translate(101.042334, 22.974197)"><g><path d="M 8.75 -5.0625 L 8.75 -0.5625 C 8.269531 -0.34375 7.734375 -0.175781 7.140625 -0.0625 C 6.554688 0.0507812 5.953125 0.109375 5.328125 0.109375 C 4.359375 0.109375 3.515625 -0.0703125 2.796875 -0.4375 C 2.078125 -0.8125 1.523438 -1.34375 1.140625 -2.03125 C 0.753906 -2.71875 0.5625 -3.535156 0.5625 -4.484375 C 0.5625 -5.410156 0.753906 -6.21875 1.140625 -6.90625 C 1.523438 -7.601562 2.070312 -8.132812 2.78125 -8.5 C 3.488281 -8.875 4.3125 -9.0625 5.25 -9.0625 C 5.894531 -9.0625 6.503906 -8.976562 7.078125 -8.8125 C 7.648438 -8.644531 8.117188 -8.414062 8.484375 -8.125 L 7.734375 -6.453125 C 7.328125 -6.722656 6.929688 -6.914062 6.546875 -7.03125 C 6.160156 -7.15625 5.753906 -7.21875 5.328125 -7.21875 C 4.523438 -7.21875 3.925781 -6.992188 3.53125 -6.546875 C 3.144531 -6.097656 2.953125 -5.410156 2.953125 -4.484375 C 2.953125 -3.535156 3.15625 -2.828125 3.5625 -2.359375 C 3.96875 -1.898438 4.597656 -1.671875 5.453125 -1.671875 C 5.835938 -1.671875 6.226562 -1.710938 6.625 -1.796875 L 6.625 -3.453125 L 5.0625 -3.453125 L 5.0625 -5.0625 Z M 8.75 -5.0625 "/></g></g></g><g fill="#ffffff" fill-opacity="1"><g transform="translate(110.487508, 22.974197)"><g/></g></g><g fill="#ffffff" fill-opacity="1"><g transform="translate(114.134781, 22.974197)"><g><path d="M 5.15625 0.109375 C 4.226562 0.109375 3.414062 -0.078125 2.71875 -0.453125 C 2.03125 -0.835938 1.5 -1.378906 1.125 -2.078125 C 0.75 -2.773438 0.5625 -3.578125 0.5625 -4.484375 C 0.5625 -5.390625 0.75 -6.1875 1.125 -6.875 C 1.5 -7.570312 2.03125 -8.109375 2.71875 -8.484375 C 3.414062 -8.867188 4.226562 -9.0625 5.15625 -9.0625 C 5.738281 -9.0625 6.304688 -8.972656 6.859375 -8.796875 C 7.410156 -8.628906 7.851562 -8.394531 8.1875 -8.09375 L 7.46875 -6.421875 C 6.738281 -6.941406 5.984375 -7.203125 5.203125 -7.203125 C 4.484375 -7.203125 3.929688 -6.972656 3.546875 -6.515625 C 3.160156 -6.066406 2.96875 -5.390625 2.96875 -4.484375 C 2.96875 -3.578125 3.160156 -2.894531 3.546875 -2.4375 C 3.929688 -1.976562 4.484375 -1.75 5.203125 -1.75 C 5.984375 -1.75 6.738281 -2.015625 7.46875 -2.546875 L 8.1875 -0.875 C 7.851562 -0.570312 7.410156 -0.332031 6.859375 -0.15625 C 6.304688 0.0195312 5.738281 0.109375 5.15625 0.109375 Z M 5.15625 0.109375 "/></g></g></g><g fill="#ffffff" fill-opacity="1"><g transform="translate(122.749879, 22.974197)"><g><path d="M 6.734375 -8.953125 L 9.0625 -8.953125 L 9.0625 0 L 6.734375 0 L 6.734375 -3.625 L 3.125 -3.625 L 3.125 0 L 0.8125 0 L 0.8125 -8.953125 L 3.125 -8.953125 L 3.125 -5.46875 L 6.734375 -5.46875 Z M 6.734375 -8.953125 "/></g></g></g><g fill="#ffffff" fill-opacity="1"><g transform="translate(132.610086, 22.974197)"><g><path d="M 7.640625 0 L 6.84375 -1.84375 L 2.875 -1.84375 L 2.078125 0 L -0.296875 0 L 3.90625 -8.953125 L 5.765625 -8.953125 L 9.96875 0 Z M 3.640625 -3.625 L 6.078125 -3.625 L 4.859375 -6.453125 Z M 7.109375 -11.09375 L 6.0625 -11.09375 L 6.875 -12.875 L 8.65625 -12.875 Z M 4.0625 -9.71875 L 2.453125 -9.71875 L 4.203125 -11.4375 L 5.4375 -11.4375 L 7.1875 -9.71875 L 5.578125 -9.71875 L 4.828125 -10.46875 Z M 4.0625 -9.71875 "/></g></g></g><g fill="#ffffff" fill-opacity="1"><g transform="translate(142.281643, 22.974197)"><g><path d="M 8.03125 -8.953125 L 9.875 -8.953125 L 9.875 0 L 7.8125 0 L 7.796875 -4.09375 L 6.09375 0 L 4.609375 0 L 2.890625 -4.046875 L 2.890625 0 L 0.84375 0 L 0.84375 -8.953125 L 2.6875 -8.953125 L 5.375 -2.84375 Z M 8.03125 -8.953125 "/></g></g></g><g fill="#ffffff" fill-opacity="1"><g transform="translate(152.997067, 22.974197)"><g/></g></g><g fill="#ffffff" fill-opacity="1"><g transform="translate(156.64434, 22.974197)"><g><path d="M 4.9375 -8.953125 C 5.925781 -8.953125 6.773438 -8.773438 7.484375 -8.421875 C 8.203125 -8.066406 8.75 -7.550781 9.125 -6.875 C 9.507812 -6.207031 9.703125 -5.410156 9.703125 -4.484375 C 9.703125 -3.554688 9.515625 -2.753906 9.140625 -2.078125 C 8.765625 -1.398438 8.21875 -0.882812 7.5 -0.53125 C 6.78125 -0.175781 5.925781 0 4.9375 0 L 1.265625 0 L 1.265625 -3.640625 L 0.21875 -3.640625 L 0.21875 -5.390625 L 1.265625 -5.390625 L 1.265625 -8.953125 Z M 4.765625 -1.890625 C 5.640625 -1.890625 6.289062 -2.101562 6.71875 -2.53125 C 7.144531 -2.96875 7.359375 -3.617188 7.359375 -4.484375 C 7.359375 -6.203125 6.492188 -7.0625 4.765625 -7.0625 L 3.640625 -7.0625 L 3.640625 -5.390625 L 5.953125 -5.390625 L 5.953125 -3.640625 L 3.640625 -3.640625 L 3.640625 -1.890625 Z M 4.765625 -1.890625 "/></g></g></g><g fill="#ffffff" fill-opacity="1"><g transform="translate(166.93215, 22.974197)"><g><path d="M 0.8125 0 L 0.8125 -8.953125 L 3.171875 -8.953125 L 3.171875 0 Z M 0.8125 0 "/></g></g></g><g fill="#ffffff" fill-opacity="1"><g transform="translate(170.906421, 22.974197)"><g><path d="M 0.8125 0 L 0.8125 -8.953125 L 7.1875 -8.953125 L 7.1875 -7.140625 L 3.109375 -7.140625 L 3.109375 -5.453125 L 6.9375 -5.453125 L 6.9375 -3.640625 L 3.109375 -3.640625 L 3.109375 -1.8125 L 7.1875 -1.8125 L 7.1875 0 Z M 6.515625 -11.125 L 5.453125 -11.125 L 5.453125 -11.390625 C 5.453125 -11.546875 5.507812 -11.660156 5.625 -11.734375 C 5.75 -11.816406 5.890625 -11.882812 6.046875 -11.9375 C 6.203125 -11.988281 6.28125 -12.019531 6.28125 -12.03125 C 6.28125 -12.070312 6.25 -12.109375 6.1875 -12.140625 C 6.132812 -12.171875 6.039062 -12.1875 5.90625 -12.1875 C 5.6875 -12.1875 5.453125 -12.140625 5.203125 -12.046875 L 4.921875 -12.734375 C 5.296875 -12.878906 5.722656 -12.953125 6.203125 -12.953125 C 6.617188 -12.953125 6.953125 -12.882812 7.203125 -12.75 C 7.460938 -12.613281 7.59375 -12.4375 7.59375 -12.21875 C 7.59375 -12.050781 7.539062 -11.925781 7.4375 -11.84375 C 7.332031 -11.757812 7.175781 -11.671875 6.96875 -11.578125 C 6.789062 -11.515625 6.671875 -11.457031 6.609375 -11.40625 C 6.546875 -11.363281 6.515625 -11.296875 6.515625 -11.203125 Z M 3.46875 -9.71875 L 1.859375 -9.71875 L 3.609375 -11.4375 L 4.84375 -11.4375 L 6.59375 -9.71875 L 4.984375 -9.71875 L 4.234375 -10.46875 Z M 3.46875 -9.71875 "/></g></g></g><g fill="#ffffff" fill-opacity="1"><g transform="translate(178.502802, 22.974197)"><g><path d="M 8.03125 -8.953125 L 9.875 -8.953125 L 9.875 0 L 7.8125 0 L 7.796875 -4.09375 L 6.09375 0 L 4.609375 0 L 2.890625 -4.046875 L 2.890625 0 L 0.84375 0 L 0.84375 -8.953125 L 2.6875 -8.953125 L 5.375 -2.84375 Z M 8.03125 -8.953125 "/></g></g></g></svg>